# xmcd
#
# Track frame offsets: 
#        150
#        7923
#        16647
#        26367
#        33999
#        46912
#        55400
#        64466
#        73047
#        82399
#        92729
#        102470
#        112847
#        126653
#        137270
#        145561
#        153107
#        162018
#        170928
#        179126
#        188956
#        199081
#        210837
#        220461
#        230147
#        240374
#        249082
#        256905
#        263445
#        274882
#
# Disc length: 3773 seconds
#
# Revision: 0
# Processed by: cddbd v1.5.1PL0 Copyright (c) Steve Scherf et al.
# Submitted via: ExactAudioCopy v0.95a4
#
DISCID=a20ebb1e
DTITLE=Various Artist - More Boppin'...More Rockin'
DYEAR=1900
DGENRE=Country
TTITLE0=Don Ward With Millie Reid - Free From The Chains
TTITLE1=Larry Bryant - Keep Right On Tryin'
TTITLE2=Al Britt - You Waited Too Long
TTITLE3=Don Epperson and His Kentuckians - You're Gone Again
TTITLE4=Kenny Rogers and Joyce Singo - Raindrops
TTITLE5=Billy Martin - You Ain't Lovin'
TTITLE6=Red Le Blanc - I Love Her Right Or Wring
TTITLE7=Les and Helen Tussey and The Golden Hill Boys - They Went Around
TTITLE8=Gene Finney - Love Of A Lifetime
TTITLE9=D. J. Chapman - Hey Porter
TTITLE10=Cecil Campbell and His Tennessee Ramblers - Steel Guitar Swing
TTITLE11=Ray Mitcham - Out Yonder
TTITLE12=Red Speeks - Mountain Boy
TTITLE13=Echo Valley Rangers - All Because Of You
TTITLE14=Country Ramblers - Walkin', Talkin', Cryin', Barely Beatin', 
TTITLE14=Broken Heart
TTITLE15=John Watson and Kirk Brothers - Getting-Right
TTITLE16=Don Ward With Millie Reid - I'm Gonna Cry
TTITLE17=Bennie Hess - Queen Of Slyvan Beach
TTITLE18=Big Jim De Noone - Crazy Fiddle
TTITLE19=Missisippi Valley Boys - Lookin' For My Baby
TTITLE20=Jack Reno - Wonder Drug
TTITLE21=Sons Of The Purple Sage - When My Blue Moon Turns To Gold Aga
TTITLE21=in
TTITLE22=Mary Carr and The Car-Tunes - Who Taught Who
TTITLE23=Herbert G. Map and The Ramblers - Silver Streak
TTITLE24=Lee (Red) Melson and His Missouri Nite Hawks - Boss Man Blues
TTITLE25=Larry Bryant - I Remember
TTITLE26=Jimmy Avants and The Country Serenaders - Devil On An Angel
TTITLE27=Tom Carter and The Ramrods - Frankie And Johnny
TTITLE28=Country Cousins - Don't Stay Out Late
TTITLE29=Edwards Brothers - Heart Thief
EXTD=
EXTT0=
EXTT1=
EXTT2=
EXTT3=
EXTT4=
EXTT5=
EXTT6=
EXTT7=
EXTT8=
EXTT9=
EXTT10=
EXTT11=
EXTT12=
EXTT13=
EXTT14=
EXTT15=
EXTT16=
EXTT17=
EXTT18=
EXTT19=
EXTT20=
EXTT21=
EXTT22=
EXTT23=
EXTT24=
EXTT25=
EXTT26=
EXTT27=
EXTT28=
EXTT29=
PLAYORDER=
